<svg width="17" height="17" viewBox="0 0 17 17" fill="none" xmlns="http://www.w3.org/2000/svg">
<g id="Group 36689">
<g id="Group">
<path id="Exclude" fill-rule="evenodd" clip-rule="evenodd" d="M7.63905 13.4649C8.02061 14.0124 8.81045 14.0124 9.192 13.4649C10.4794 11.6176 12.9155 7.87993 12.9155 6.04785C12.9155 4.85438 12.4414 3.70978 11.5975 2.86587C10.7536 2.02196 9.609 1.54785 8.41553 1.54785C7.22205 1.54785 6.07746 2.02196 5.23355 2.86587C4.38963 3.70978 3.91553 4.85438 3.91553 6.04785C3.91553 7.87993 6.35168 11.6176 7.63905 13.4649ZM9.91553 6.04785C9.91553 6.87628 9.24395 7.54785 8.41553 7.54785C7.5871 7.54785 6.91553 6.87628 6.91553 6.04785C6.91553 5.21942 7.5871 4.54785 8.41553 4.54785C9.24395 4.54785 9.91553 5.21942 9.91553 6.04785Z" fill="#888888"/>
</g>
</g>
</svg>
