<svg width="17" height="17" viewBox="0 0 17 17" fill="none" xmlns="http://www.w3.org/2000/svg">
<g id="Group 36690">
<path id="Vector" d="M10.4971 14.3215C11.1129 14.7188 11.8468 14.8919 12.5752 14.8118C13.3037 14.7316 13.9823 14.4031 14.4971 13.8815L14.9471 13.4415C15.1444 13.2397 15.2548 12.9687 15.2548 12.6865C15.2548 12.4043 15.1444 12.1333 14.9471 11.9315L13.0371 10.0415C12.837 9.84482 12.5676 9.73463 12.2871 9.73463C12.0065 9.73463 11.7372 9.84482 11.5371 10.0415C11.3353 10.2388 11.0643 10.3492 10.7821 10.3492C10.4999 10.3492 10.2289 10.2388 10.0271 10.0415L7.02709 7.04148C6.92701 6.94285 6.84754 6.82532 6.79329 6.6957C6.73905 6.56609 6.71112 6.42698 6.71112 6.28648C6.71112 6.14597 6.73905 6.00687 6.79329 5.87725C6.84754 5.74764 6.92701 5.6301 7.02709 5.53148C7.22374 5.33137 7.33394 5.06204 7.33394 4.78148C7.33394 4.50092 7.22374 4.23158 7.02709 4.03148L5.12709 2.13148C4.9253 1.93419 4.6543 1.82373 4.37209 1.82373C4.08988 1.82373 3.81888 1.93419 3.61709 2.13148L3.17709 2.58148C2.65544 3.09622 2.32692 3.77488 2.24679 4.50334C2.16666 5.23181 2.3398 5.96565 2.73709 6.58148C4.80713 9.63221 7.44103 12.2593 10.4971 14.3215Z" fill="#888888"/>
</g>
</svg>
