<svg width="121" height="121" viewBox="0 0 121 121" fill="none" xmlns="http://www.w3.org/2000/svg">
<g id="Group 36708">
<g id="Group 36707">
<rect id="Rectangle 2578" x="0.469482" y="0.971069" width="120" height="120" rx="24" fill="#29DDF6"/>
<g id="WPP">
<path d="M12.2488 49.0934C12.644 48.3029 13.2651 47.696 14.1119 47.2725C14.9871 46.8209 16.0175 46.595 17.2031 46.595C19.0663 46.595 20.5484 47.2725 21.6493 48.6276C22.7785 49.9544 23.3431 52.0857 23.3431 55.0216V70.1387L33.0401 47.4419H38.0367L39.18 68.8684L39.053 70.0964L49.1311 47.4419H54.9323L41.382 75.3471H32.3625L31.5156 62.4743L25.9261 75.3471H15.721L14.4507 55.0216C14.366 53.4972 14.1119 52.241 13.6885 51.253C13.2933 50.2367 12.8134 49.5168 12.2488 49.0934Z" fill="white"/>
<path d="M70.9485 47.1032C77.8648 47.1032 81.323 49.545 81.323 54.4288C81.323 57.1106 80.462 59.2561 78.74 60.8652C77.0462 62.4743 74.7172 63.2789 71.7531 63.2789C70.3698 63.2789 69.1418 62.8836 68.0691 62.0932C67.5609 61.7545 67.1375 61.3592 66.7987 60.9076C68.8595 60.9076 70.4263 60.2865 71.499 59.0444C72.6 57.774 73.1505 55.9109 73.1505 53.4549C73.1505 50.9989 71.9366 49.7709 69.5088 49.7709H68.4925C68.3232 49.7709 68.1679 49.785 68.0267 49.8132L63.1571 75.3471H53.9683L59.1767 47.6113C62.1973 47.329 64.5827 47.1737 66.333 47.1455C68.0832 47.1173 69.6217 47.1032 70.9485 47.1032Z" fill="white"/>
<path d="M98.3158 47.1032C105.232 47.1032 108.69 49.545 108.69 54.4288C108.69 57.1106 107.829 59.2561 106.107 60.8652C104.413 62.4743 102.085 63.2789 99.1204 63.2789C97.7371 63.2789 96.5091 62.8836 95.4364 62.0932C94.9282 61.7545 94.5048 61.3592 94.166 60.9076C96.2268 60.9076 97.7936 60.2865 98.8663 59.0444C99.9673 57.774 100.518 55.9109 100.518 53.4549C100.518 50.9989 99.3039 49.7709 96.8761 49.7709H95.8598C95.6905 49.7709 95.5352 49.785 95.394 49.8132L90.5244 75.3471H81.3356L86.544 47.6113C89.5646 47.329 91.95 47.1737 93.7002 47.1455C95.4505 47.1173 96.989 47.1032 98.3158 47.1032Z" fill="white"/>
</g>
</g>
<g id="WPP_2">
<path d="M12.2488 49.0934C12.644 48.3029 13.2651 47.696 14.1119 47.2725C14.9871 46.8209 16.0175 46.595 17.2031 46.595C19.0663 46.595 20.5484 47.2725 21.6493 48.6276C22.7785 49.9544 23.3431 52.0857 23.3431 55.0216V70.1387L33.0401 47.4419H38.0367L39.18 68.8684L39.053 70.0964L49.1311 47.4419H54.9323L41.382 75.3471H32.3625L31.5156 62.4743L25.9261 75.3471H15.721L14.4507 55.0216C14.366 53.4972 14.1119 52.241 13.6885 51.253C13.2933 50.2367 12.8134 49.5168 12.2488 49.0934Z" fill="white"/>
<path d="M70.9485 47.1032C77.8648 47.1032 81.323 49.545 81.323 54.4288C81.323 57.1106 80.462 59.2561 78.74 60.8652C77.0462 62.4743 74.7172 63.2789 71.7531 63.2789C70.3698 63.2789 69.1418 62.8836 68.0691 62.0932C67.5609 61.7545 67.1375 61.3592 66.7987 60.9076C68.8595 60.9076 70.4263 60.2865 71.499 59.0444C72.6 57.774 73.1505 55.9109 73.1505 53.4549C73.1505 50.9989 71.9366 49.7709 69.5088 49.7709H68.4925C68.3232 49.7709 68.1679 49.785 68.0267 49.8132L63.1571 75.3471H53.9683L59.1767 47.6113C62.1973 47.329 64.5827 47.1737 66.333 47.1455C68.0832 47.1173 69.6217 47.1032 70.9485 47.1032Z" fill="white"/>
<path d="M98.3158 47.1032C105.232 47.1032 108.69 49.545 108.69 54.4288C108.69 57.1106 107.829 59.2561 106.107 60.8652C104.413 62.4743 102.085 63.2789 99.1204 63.2789C97.7371 63.2789 96.5091 62.8836 95.4364 62.0932C94.9282 61.7545 94.5048 61.3592 94.166 60.9076C96.2268 60.9076 97.7936 60.2865 98.8663 59.0444C99.9673 57.774 100.518 55.9109 100.518 53.4549C100.518 50.9989 99.3039 49.7709 96.8761 49.7709H95.8598C95.6905 49.7709 95.5352 49.785 95.394 49.8132L90.5244 75.3471H81.3356L86.544 47.6113C89.5646 47.329 91.95 47.1737 93.7002 47.1455C95.4505 47.1173 96.989 47.1032 98.3158 47.1032Z" fill="white"/>
</g>
</g>
</svg>
